<svg xmlns="http://www.w3.org/2000/svg" width="56" height="56"><defs><radialGradient id="b" cx="48.744%" cy="50.721%" r="34.598%" fx="48.744%" fy="50.721%"><stop offset="0%" stop-color="#F1F5F9"/><stop offset="100%" stop-color="#F1F5F9" stop-opacity="0"/></radialGradient><linearGradient id="a" x1="50%" x2="50%" y1="100%" y2="0%"><stop offset="0%" stop-color="#334155"/><stop offset="100%" stop-color="#94A3B8" stop-opacity=".601"/></linearGradient></defs><g fill="none" fill-rule="evenodd"><circle cx="28" cy="28" r="28" fill="url(#a)"/><circle cx="28" cy="28" r="27" fill="#1E293B"/><circle cx="28" cy="28" r="27" fill="url(#b)" opacity=".079"/><path fill="#475569" fill-rule="nonzero" d="m25.44 19.083-.866.5-2.502-4.333.866-.5 2.502 4.333Zm-10.873.5.866-.5 2.502 4.334-.866.5-2.502-4.334Zm23.383 4.334-.866-.5 2.502-4.334.866.5-2.502 4.334Zm-5.87-9.167.867.5-2.502 4.333-.866-.5 2.502-4.333ZM29.58 36.917l.866-.5 2.502 4.333-.866.5-2.502-4.333Zm10.873-.5-.866.5-2.502-4.334.866-.5 2.502 4.334Zm-23.383-4.334.866.5-2.502 4.334-.866-.5 2.502-4.334Zm5.87 9.167-.867-.5 2.502-4.333.866.5-2.502 4.333Z"/><path fill="#E2E8F0" fill-rule="nonzero" d="m25.296 28.5-2.213 3.833 2.213 3.834h4.427l2.213-3.834-2.213-3.833h-4.427Zm0-1h4.427l2.213-3.833-2.213-3.834h-4.427l-2.213 3.834 2.213 3.833Zm-3.08-4.333 2.503-4.334H30.3l2.502 4.334h5.004L40.596 28l-2.79 4.833h-5.004L30.3 37.167H24.72l-2.502-4.334h-5.004L14.423 28l2.79-4.833h5.004Zm15.012 8.666L39.442 28l-2.214-3.833h-4.426L30.59 28l2.213 3.833h4.426Zm-15.011 0L24.43 28l-2.213-3.833H17.79L15.577 28l2.214 3.833h4.426Z"/></g></svg>