<svg xmlns="http://www.w3.org/2000/svg" width="56" height="56"><defs><radialGradient id="b" cx="48.744%" cy="50.721%" r="34.598%" fx="48.744%" fy="50.721%"><stop offset="0%" stop-color="#F1F5F9"/><stop offset="100%" stop-color="#F1F5F9" stop-opacity="0"/></radialGradient><linearGradient id="a" x1="50%" x2="50%" y1="100%" y2="0%"><stop offset="0%" stop-color="#334155"/><stop offset="100%" stop-color="#94A3B8" stop-opacity=".601"/></linearGradient></defs><g fill="none" fill-rule="evenodd"><circle cx="28" cy="28" r="28" fill="url(#a)"/><circle cx="28" cy="28" r="27" fill="#1E293B"/><circle cx="28" cy="28" r="27" fill="url(#b)" opacity=".079"/><path fill="#E2E8F0" fill-rule="nonzero" d="m27.712 33.2-.495-.073.148-.99.495.075c.545.081 1.095.126 1.64.132a3.786 3.786 0 0 0 3.786-3.785c0-1.374-.21-2.49-.842-5.022a62.2 62.2 0 0 1-.416-1.727c-.304-1.366-.457-2.466-.457-3.538a4.714 4.714 0 0 1 .984-2.876l.306-.396.791.611-.305.396a3.713 3.713 0 0 0-.776 2.266c0 .986.144 2.02.433 3.32.105.47.196.849.41 1.701.653 2.612.872 3.78.872 5.265a4.786 4.786 0 0 1-4.792 4.785 13.058 13.058 0 0 1-1.782-.143Zm1.862-10.998.495.074-.149.99-.494-.075a12.042 12.042 0 0 0-1.64-.132A3.786 3.786 0 0 0 24 26.844c0 1.728.207 2.797.838 5.006.655 2.29.876 3.437.876 5.28a4.714 4.714 0 0 1-.983 2.877l-.306.396-.792-.612.306-.395c.502-.65.774-1.446.775-2.266 0-1.728-.207-2.797-.838-5.006-.654-2.29-.876-3.436-.876-5.28a4.787 4.787 0 0 1 4.792-4.785c.596.007 1.192.055 1.782.143Z"/><path fill="#475569" fill-rule="nonzero" d="m20.664 30.774-.148.99a12.04 12.04 0 0 0-1.639-.133 3.748 3.748 0 0 0-2.269.773L16 31.611a4.753 4.753 0 0 1 2.882-.98c.596.007 1.192.055 1.782.143Zm15.28-6.144.149-.989a12.04 12.04 0 0 0 1.638.133A3.748 3.748 0 0 0 40 23l.608.794a4.753 4.753 0 0 1-2.881.98 13.058 13.058 0 0 1-1.783-.144Z"/></g></svg>