<svg xmlns="http://www.w3.org/2000/svg" width="56" height="56"><defs><radialGradient id="b" cx="48.744%" cy="50.721%" r="34.598%" fx="48.744%" fy="50.721%"><stop offset="0%" stop-color="#F1F5F9"/><stop offset="100%" stop-color="#F1F5F9" stop-opacity="0"/></radialGradient><linearGradient id="a" x1="50%" x2="50%" y1="100%" y2="0%"><stop offset="0%" stop-color="#334155"/><stop offset="100%" stop-color="#94A3B8" stop-opacity=".601"/></linearGradient></defs><g fill="none" fill-rule="evenodd"><circle cx="28" cy="28" r="28" fill="url(#a)"/><circle cx="28" cy="28" r="27" fill="#1E293B"/><circle cx="28" cy="28" r="27" fill="url(#b)" opacity=".079"/><g fill-rule="nonzero"><path fill="#475569" d="m21.153 16.414-4.446 4.446-.707-.707L21.153 15l5.154 5.153-.707.707-4.447-4.446ZM20.8 25.66l.707-.707 4.8 4.8-.707.708-4.8-4.8Zm9.6 0 .707-.707 4.8 4.8-.707.708-4.8-4.8Zm9.6 8.894.707.707-5.153 5.153-5.154-5.153.707-.707L35.554 39 40 34.554Z"/><path fill="#FFF" d="m30.107 16.414-14.4 14.4-.707-.707L30.107 15l5.507 5.507-.707.707-4.8-4.8Zm9 8.786.708.707-14.508 14.507-5.507-5.507.707-.707 4.8 4.8 13.8-13.8Z"/></g></g></svg>