<svg xmlns="http://www.w3.org/2000/svg" width="56" height="56"><defs><radialGradient id="b" cx="48.744%" cy="50.721%" r="34.598%" fx="48.744%" fy="50.721%"><stop offset="0%" stop-color="#F1F5F9"/><stop offset="100%" stop-color="#F1F5F9" stop-opacity="0"/></radialGradient><linearGradient id="a" x1="50%" x2="50%" y1="100%" y2="0%"><stop offset="0%" stop-color="#334155"/><stop offset="100%" stop-color="#94A3B8" stop-opacity=".601"/></linearGradient></defs><g fill="none" fill-rule="evenodd"><circle cx="28" cy="28" r="28" fill="url(#a)"/><circle cx="28" cy="28" r="27" fill="#1E293B"/><circle cx="28" cy="28" r="27" fill="url(#b)" opacity=".079"/><path fill="#FFF" fill-rule="nonzero" d="M18.5 19.5a1 1 0 0 0-1 1v15a1 1 0 0 0 1 1h6a1 1 0 0 0 1-1v-15a1 1 0 0 0-1-1h-6Zm0-1h6a2 2 0 0 1 2 2v15a2 2 0 0 1-2 2h-6a2 2 0 0 1-2-2v-15a2 2 0 0 1 2-2Z"/><path fill="#475569" fill-rule="nonzero" d="M32.5 18.5v1h-1a1 1 0 0 0-1 1v1h-1v-1a2 2 0 0 1 2-2h1Zm4 1v-1h1a2 2 0 0 1 2 2v1h-1v-1a1 1 0 0 0-1-1h-1Zm0 18v-1h1a1 1 0 0 0 1-1v-1h1v1a2 2 0 0 1-2 2h-1Zm-4-1v1h-1a2 2 0 0 1-2-2v-1h1v1a1 1 0 0 0 1 1h1Zm-3-12h1v2h-1v-2Zm9 0h1v2h-1v-2Zm-9 5h1v2h-1v-2Zm9 0h1v2h-1v-2Z"/></g></svg>