<svg xmlns="http://www.w3.org/2000/svg" width="56" height="56"><defs><radialGradient id="b" cx="48.744%" cy="50.721%" r="34.598%" fx="48.744%" fy="50.721%"><stop offset="0%" stop-color="#F1F5F9"/><stop offset="100%" stop-color="#F1F5F9" stop-opacity="0"/></radialGradient><linearGradient id="a" x1="50%" x2="50%" y1="100%" y2="0%"><stop offset="0%" stop-color="#334155"/><stop offset="100%" stop-color="#94A3B8" stop-opacity=".601"/></linearGradient></defs><g fill="none" fill-rule="evenodd"><circle cx="28" cy="28" r="28" fill="url(#a)"/><circle cx="28" cy="28" r="27" fill="#1E293B"/><circle cx="28" cy="28" r="27" fill="url(#b)" opacity=".079"/><path fill="#475569" fill-rule="nonzero" d="M33.804 21.335 37.14 18l.707.707-7.354 7.355-.707-.707 3.31-3.311A7.3 7.3 0 0 0 21 27.547a7.3 7.3 0 0 0 12.096 5.503l-3.311-3.312.707-.707 7.354 7.354-.707.708-3.334-3.335A8.3 8.3 0 0 1 20 27.546a8.3 8.3 0 0 1 13.804-6.211Z"/><path fill="#E2E8F0" fill-rule="nonzero" d="M28.5 42C21.044 42 15 35.956 15 28.5S21.044 15 28.5 15 42 21.044 42 28.5 35.956 42 28.5 42Zm0-1C35.404 41 41 35.404 41 28.5S35.404 16 28.5 16 16 21.596 16 28.5 21.596 41 28.5 41Zm0-9.4a3.1 3.1 0 1 1 0-6.2 3.1 3.1 0 0 1 0 6.2Zm0-1a2.1 2.1 0 1 0 0-4.2 2.1 2.1 0 0 0 0 4.2Z"/></g></svg>