<svg xmlns="http://www.w3.org/2000/svg" width="70" height="25"><path fill="#CBD5E1" fill-rule="nonzero" d="M10.278 0c.168.077.274.237.41.364.218.188.38.436.594.63.263.247.431.562.65.843.381.569.718 1.176.892 1.838.18.452.207.943.196 1.429.011.441-.112.877-.314 1.274-.348.602-.976 1.004-1.632 1.22-.819.193-1.722.226-2.512-.116-.286-.155-.612-.26-.841-.502-.533-.43-.842-1.131-.74-1.81.156-1.208.89-2.246 1.676-3.14.073.133.011.287.062.425.067.293.174.602.398.811.275-.248.566-.496.802-.783.213-.31.387-.651.46-1.015.017-.464.061-.95-.118-1.39L10.278 0ZM.004 5.512c1.312.011 2.63-.011 3.943.011 0 1.286.01 2.571-.006 3.857.93.016 1.862.005 2.798.005.011.1.017.199.017.298-.011 1.06.006 2.113-.011 3.173-.937.01-1.868 0-2.804.005.017 1.904-.006 3.802.011 5.705.034.166.056.331.05.502-.016.155.079.282.113.425.073.331.258.63.47.889a2.36 2.36 0 0 0 1.15.617c.393.061.785.094 1.184.067a.625.625 0 0 1 .033.204c-.005.993-.005 1.986 0 2.974 0 .138-.028.276-.05.408-.567 0-1.133.039-1.7 0-.336-.072-.695-.039-1.02-.182-.903-.21-1.766-.651-2.411-1.319-.948-.9-1.458-2.168-1.666-3.426-.056-.138-.022-.298-.045-.447-.078-.303-.045-.624-.056-.932C0 14.07 0 9.788.004 5.512ZM19.16 9.087c.236-.06.488-.016.724-.066.493-.06.981.017 1.469.033.342-.005.673.094 1.01.16 1.25.298 2.433.955 3.291 1.915.152.248.382.43.527.684.365.568.606 1.203.813 1.843.13.469.197.954.258 1.434.028 1.065.012 2.135.017 3.2-.005 2.125.006 4.249-.005 6.373-1.313-.017-2.62-.005-3.926-.011a.308.308 0 0 1-.05-.039c-.006-2.973 0-5.947 0-8.916.005-.364-.062-.717-.14-1.065-.14-.353-.32-.69-.567-.976-.146-.171-.348-.282-.51-.43-.253-.166-.55-.243-.836-.32-.151-.012-.303 0-.443-.05-.6-.039-1.211.01-1.772.237-.41.193-.79.458-1.06.828-.443.518-.589 1.224-.577 1.887 0 2.946.005 5.898 0 8.844-1.324.011-2.647-.006-3.97.011-.023-2.841 0-5.688-.012-8.53.006-.364-.005-.728.023-1.092.073-.183.022-.381.078-.558.101-.673.359-1.313.645-1.925.28-.536.617-1.049 1.054-1.473.342-.343.696-.701 1.127-.938.836-.574 1.823-.922 2.832-1.06Zm46.994-.033c.488-.01.97-.105 1.458-.027.263.033.532.027.796.038.05.48.011.966.022 1.446v1.93c0 .122.017.25-.033.365-.13-.094-.303-.06-.449-.1-.594-.049-1.206-.021-1.766.2a2.802 2.802 0 0 0-1.576 1.33c-.095.115-.095.28-.202.39-.174.619-.185 1.264-.174 1.899-.006 2.714.017 5.423-.011 8.138-1.307-.016-2.619 0-3.931-.011-.011-.011-.028-.033-.04-.044v-8.856c-.016-.37.068-.728.062-1.092.09-.177.068-.38.124-.563.28-1.396 1.026-2.714 2.159-3.614.218-.243.532-.358.79-.552.836-.502 1.806-.744 2.77-.877ZM8.029 9.38c1.323.022 2.647-.006 3.97.01 0 5.05-.005 10.092 0 15.135 0 .05 0 .15-.078.133H8.04c-.034-.834-.006-1.672-.018-2.505.006-4.254 0-8.514.006-12.773Zm41.526 10.24c.336-.127.661-.292 1.003-.408.494-.188.976-.414 1.47-.602 1.02-.463 2.075-.85 3.106-1.285.247-.133.527-.193.769-.337.274-.105.55-.198.818-.32.236-.138.505-.193.746-.314.32-.127.628-.27.954-.386.33-.183.7-.27 1.031-.447.09-.061.236-.045.292-.15-.095-.132-.045-.297-.095-.44-.073-.26-.146-.514-.208-.768a7.166 7.166 0 0 0-1.11-2.14c-.6-.856-1.425-1.545-2.339-2.053-.6-.359-1.273-.563-1.946-.74-.415-.049-.813-.192-1.233-.187-.382-.05-.774-.072-1.15-.005-.667.01-1.306.17-1.94.353-1.105.38-2.154.96-3 1.76-.253.232-.46.502-.701.74a8.066 8.066 0 0 0-.976 1.516c-.365.812-.712 1.661-.752 2.56-.123.43-.084.883-.09 1.325-.01.281.034.557.09.827-.016.287.096.552.135.828.095.585.359 1.125.6 1.666.662 1.335 1.705 2.494 3.011 3.25.858.519 1.812.888 2.81 1.026a8.801 8.801 0 0 0 2.467.044c.28.022.55-.099.83-.115 1.195-.276 2.367-.773 3.27-1.606.269-.21.521-.458.734-.723.36-.359.617-.794.875-1.225a7.42 7.42 0 0 0 .595-1.445c-.079-.033-.169-.022-.247-.022-1.312.005-2.619-.006-3.931 0-.123 0-.123.165-.202.231-.224.32-.51.59-.813.845-.438.309-.954.474-1.464.623-.134.017-.263.011-.387.06-.314.023-.633.012-.953.006a8.53 8.53 0 0 1-1.049-.254c-.527-.264-1.043-.568-1.44-.998-.102-.122-.264-.215-.298-.375.09-.04.174-.1.275-.116.162-.028.286-.155.443-.199Zm-1.615-2.792c-.079-.193-.006-.42-.017-.623.09-.282.118-.58.224-.861.27-.623.6-1.236 1.082-1.727.225-.182.415-.403.673-.54.19-.1.376-.21.572-.299.365-.104.718-.27 1.1-.27.347-.083.706-.039 1.06-.033.925.127 1.856.519 2.455 1.241.062.144-.145.155-.23.21-.364.199-.773.298-1.138.502-.162.028-.303.127-.46.177-1.16.496-2.344.932-3.493 1.45-.617.238-1.228.492-1.828.773Zm-4.178-14.19c-1.228-.012-2.456 0-3.685-.006-.09.01-.196-.028-.269.038.011 2.594 0 5.192.006 7.786-.006.093.017.187-.023.275-.112-.016-.168-.12-.252-.182-.566-.48-1.2-.888-1.907-1.125-.476-.182-.975-.276-1.48-.364-.572-.011-1.15-.028-1.727.005-.062.017-.118.033-.18.039-1.284.176-2.484.767-3.47 1.578-.55.507-1.1 1.037-1.487 1.677-.454.635-.746 1.363-1.026 2.08-.13.453-.258.9-.314 1.363-.107.712-.062 1.44-.05 2.157.027.188.09.364.095.552.1.607.28 1.203.527 1.771.207.546.544 1.043.852 1.54.219.275.432.562.696.805.392.38.779.795 1.272 1.06.584.435 1.273.695 1.946.948.247.045.477.183.73.188.212.017.409.116.622.105.112-.011.213.066.33.055.545.017 1.094.017 1.638 0 .09 0 .18-.039.275-.044.376.005.723-.138 1.088-.188.476-.17.987-.281 1.43-.535.656-.298 1.25-.717 1.783-1.192a6.833 6.833 0 0 0 1.62-2.074c.175-.348.37-.684.483-1.06.213-.518.308-1.07.381-1.616.124-.48.084-.982.096-1.479V2.637Zm-3.987 14.94c-.034.586-.258 1.143-.522 1.667-.443.822-1.189 1.451-2.035 1.848-.13.066-.298.061-.387.182-.157 0-.314.006-.466.061-.482.011-.981.055-1.452-.077-.202-.094-.426-.133-.628-.237-.253-.138-.539-.232-.746-.442-.393-.27-.696-.64-.97-1.02-.22-.37-.438-.75-.539-1.17-.112-.221-.1-.47-.162-.701-.017-.59-.05-1.197.09-1.771.061-.182.1-.375.168-.557.162-.293.263-.618.476-.883.112-.232.309-.403.466-.602.42-.474.998-.778 1.581-1.015.219-.05.432-.16.662-.16.465-.116.948-.022 1.407.061.606.215 1.206.513 1.677.955.174.16.303.358.477.518a4.646 4.646 0 0 1 .903 3.344Zm26.345 5.143h1.47c.005.11.005.22 0 .33-.169.023-.337-.005-.5.017-.022.497 0 .988-.011 1.485a4.074 4.074 0 0 0-.449-.006c-.016-.392-.01-.789-.005-1.18 0-.105.022-.227-.073-.299-.146-.022-.292.006-.438-.016-.005-.11-.005-.22.006-.331Zm1.738.005c.208-.005.415-.016.623.011-.011.16.123.27.163.42.056.187.14.364.196.552.045.082.123.154.095.259.112-.43.286-.839.46-1.242a7.23 7.23 0 0 1 .6 0c.011.59 0 1.192 0 1.783-.135.01-.27.01-.41 0 .006-.414 0-.828.012-1.236-.05.044-.101.082-.14.138-.073.375-.27.717-.365 1.092a1.325 1.325 0 0 1-.33.006c-.034-.21-.186-.381-.186-.596-.151-.182-.157-.442-.275-.646-.078.15-.016.326-.033.486-.023.259.028.524-.023.783-.134 0-.286.044-.392-.05.017-.584 0-1.17.005-1.76Z"/></svg>