<svg xmlns="http://www.w3.org/2000/svg" width="107" height="33"><path fill="#CBD5E1" fill-rule="nonzero" d="M56.392 8.292c0 1.189-.97 2.147-2.173 2.147a2.155 2.155 0 0 1-2.172-2.147c0-1.19.936-2.147 2.172-2.147 1.238.033 2.173.99 2.173 2.147Zm-8.958 4.327v.529s-1.036-1.322-3.242-1.322c-3.644 0-6.485 2.742-6.485 6.54 0 3.766 2.808 6.54 6.485 6.54 2.24 0 3.242-1.353 3.242-1.353v.56c0 .265.2.463.468.463h2.707v-12.42h-2.707a.477.477 0 0 0-.468.463Zm0 7.96c-.501.728-1.504 1.355-2.707 1.355-2.14 0-3.778-1.321-3.778-3.568 0-2.246 1.638-3.567 3.778-3.567 1.17 0 2.24.66 2.707 1.354v4.427Zm5.181-8.423h3.209v12.42h-3.209v-12.42Zm47.934-.33c-2.206 0-3.243 1.322-3.243 1.322v-6.97h-3.208v18.399h2.707a.475.475 0 0 0 .468-.463v-.561s1.036 1.354 3.242 1.354c3.644 0 6.485-2.774 6.485-6.54 0-3.765-2.841-6.541-6.45-6.541Zm-.535 10.075c-1.237 0-2.206-.627-2.708-1.354V16.12c.502-.66 1.571-1.354 2.708-1.354 2.14 0 3.777 1.321 3.777 3.567 0 2.247-1.637 3.568-3.777 3.568Zm-7.587-4.69v7.399h-3.21v-7.036c0-2.048-.668-2.874-2.472-2.874-.97 0-1.972.496-2.609 1.223v8.654h-3.208v-12.42h2.54c.267 0 .468.231.468.462v.529c.936-.958 2.173-1.322 3.41-1.322 1.403 0 2.573.397 3.51 1.19 1.135.925 1.57 2.114 1.57 4.195Zm-19.288-5.385c-2.206 0-3.242 1.322-3.242 1.322v-6.97h-3.21v18.399h2.708a.475.475 0 0 0 .468-.463v-.561s1.037 1.354 3.242 1.354c3.644 0 6.485-2.774 6.485-6.54.034-3.766-2.807-6.541-6.451-6.541ZM72.604 21.9c-1.237 0-2.206-.627-2.707-1.354V16.12c.501-.66 1.57-1.354 2.707-1.354 2.14 0 3.777 1.321 3.777 3.567 0 2.247-1.637 3.568-3.777 3.568Zm-8.69-10.075c.968 0 1.47.165 1.47.165v2.94s-2.674-.892-4.345.991v8.688h-3.21V12.156h2.708c.268 0 .468.232.468.463v.529c.602-.694 1.906-1.322 2.908-1.322ZM30.586 23.454c-.167-.397-.334-.826-.501-1.19-.268-.594-.535-1.156-.769-1.684l-.033-.033a342.668 342.668 0 0 0-7.388-14.93l-.1-.2a64.707 64.707 0 0 1-.802-1.552c-.334-.595-.668-1.222-1.203-1.817C18.72.727 17.184 0 15.546 0c-1.672 0-3.176.727-4.278 1.982-.502.594-.87 1.222-1.204 1.817a71.38 71.38 0 0 1-.802 1.553l-.1.198c-2.574 4.955-5.08 9.976-7.387 14.93l-.034.066c-.234.53-.502 1.09-.77 1.685-.166.363-.333.76-.5 1.189-.435 1.222-.569 2.378-.401 3.568a7.035 7.035 0 0 0 4.345 5.483c.87.364 1.772.529 2.708.529.267 0 .601-.033.87-.066a8.9 8.9 0 0 0 3.342-1.123c1.37-.76 2.674-1.85 4.145-3.435 1.47 1.585 2.808 2.675 4.145 3.435 1.103.628 2.24.99 3.342 1.123.268.033.602.066.87.066.936 0 1.871-.165 2.707-.529a7.022 7.022 0 0 0 4.346-5.483c.265-1.156.132-2.312-.303-3.534ZM15.512 25.17c-1.805-2.246-2.975-4.36-3.376-6.143-.167-.76-.2-1.42-.1-2.016.066-.528.267-.99.535-1.387.635-.891 1.705-1.453 2.942-1.453s2.34.528 2.941 1.453c.268.396.468.86.536 1.387.1.595.066 1.289-.1 2.016-.403 1.75-1.573 3.864-3.378 6.143Zm13.337 1.553c-.234 1.717-1.404 3.204-3.042 3.865-.802.33-1.671.43-2.54.33-.835-.1-1.672-.364-2.54-.859-1.204-.66-2.407-1.684-3.81-3.204 2.205-2.675 3.542-5.12 4.044-7.3a8.17 8.17 0 0 0 .167-2.808 5.32 5.32 0 0 0-.903-2.246c-1.037-1.487-2.775-2.346-4.713-2.346-1.938 0-3.677.892-4.713 2.346a5.325 5.325 0 0 0-.903 2.246c-.133.86-.1 1.817.167 2.808.502 2.18 1.872 4.657 4.045 7.333-1.37 1.52-2.608 2.544-3.811 3.204-.87.496-1.705.76-2.54.86a5.407 5.407 0 0 1-2.54-.33c-1.638-.662-2.808-2.149-3.042-3.866a5.404 5.404 0 0 1 .3-2.576c.1-.331.268-.661.435-1.057.234-.529.501-1.091.769-1.652l.034-.066a358.427 358.427 0 0 1 7.353-14.832l.1-.198c.268-.495.536-1.024.803-1.52.267-.528.568-1.024.936-1.453.702-.792 1.637-1.222 2.674-1.222s1.972.43 2.674 1.222c.368.43.669.926.936 1.454.268.495.535 1.024.802 1.519l.1.198a435.208 435.208 0 0 1 7.321 14.865v.033c.268.53.502 1.123.77 1.653.166.395.333.725.434 1.056.266.858.367 1.684.233 2.543Z"/></svg>