<svg xmlns="http://www.w3.org/2000/svg" width="85" height="36"><path fill="#CBD5E1" fill-rule="nonzero" d="M34.893 17.979c-2.54 1.432-4.664 4.423-5.86 6.853-.618.919-.333 2.787 1.427 1.617 1.297-.864 3.852-4.532 5.513-7.261.181-.299.386-.929.315-1.228-.264-.526-1.067-.137-1.395.019m10.336 1.824c-1.784.498-3.078 2.038-3.764 3.633-.36.835-.795 2.214-.286 2.898.21.258.575.108.784-.044.712-.49 1.228-1.25 1.663-1.929.798-1.418 1.499-2.933 1.697-4.579l-.094.021Zm6.987.476c-.927.478-1.456 2.023-1.636 2.88-.224 1.076-.43 2.542.061 3.186.113.108.26.187.441.182.737.016 1.25-1.118 1.54-1.77.483-1.084.917-2.797.762-3.892-.059-.564-.6-.814-1.168-.586M33.993 3.215c1.792 1.828 2.334 4.569 1.474 6.922-2.048 5.22-7.363 8.94-12.945 10.433-2.641.595-6.463.886-8.887-.349-2.168-1.192-3.205-3.708-2.783-6.088.676-3.64 3.486-6.286 6.807-8.031 2.768-1.328 6.038-1.923 9.347-1.552.365.058.7.234.794.655.037.303-.01.508-.151.702-.235.285-.505.353-.806.336-3.729-.023-7.56.9-10.293 3.31-1.6 1.514-2.89 3.907-1.654 6.45.79 1.6 3.626 2.09 5.292 1.939 9.69-.893 12.682-6.79 13.25-8.813 1.165-4.158-2.923-7.696-10.779-6.609C12.496 3.927 6.174 10.803 4.881 17.848c-1.358 7.402 5.798 10.542 13.252 8.98 3.039-.635 6.24-2.075 9.364-5.037 2.576-2.694 6.102-6.614 10.095-6.009.492.112 1.09.36 1.231.903.236.961-.26 1.82-.574 2.673-3.175 5.396-2.85 7.585-2.283 7.864 1.166.369 1.918-1.288 2.489-2.216.758-3.492 3.523-6.802 7.089-7.806.108-.42.12-.845.108-1.28-.055-1.87-.936-3.165-1.496-4.692-.133-.402.004-.896.319-1.198.25-.257.788-.54 1.224-.423.426.073.719.414.946.714.81 1.242 1.706 1.959 3.403 1.958 1.266.043 2.552-.042 3.567-.708.639-.728 1.369-1.516 2.323-1.773.463-.092.832.004 1.149.286.296.298.372.748.21 1.148-.293.749-1.338 1.472-2.078 2.254-1.214 1.288-2.103 2.857-2.724 4.528.382-.118.914-.244 1.405-.15 1.412.265 1.86 1.615 1.94 2.9.026.404.014.836-.046 1.253.81-.126 1.325-.427 1.932-.738 1.037-.58 1.898-1.433 2.729-2.243.368-.338.925-.46 1.343-.305.329.097.6.388.658.748.147.973-.726 1.278-1.977 3.168-.698 1.058-1.491 2.157-1.625 3.453a.817.817 0 0 0 .194.626c.286.237.76.112 1.067-.065.642-.355 1.156-.929 1.535-1.518.552-2.007 1.344-3.913 2.958-5.308.409-.306.904-.596 1.44-.478.287.05.522.256.58.485.322.958-.34 2.208-.798 3.01-.588 1.034-1.539 2.027-2.352 2.938-.021.478.087.786.46.88.566.073 1.014-.347 1.455-.7 1.229-1.141 2.391-2.477 3.118-4.007-.12-1.378.354-2.963 1.59-3.69.419-.209.906-.187 1.242.04.343.262.355.76.29 1.184-.098.497-.38.89-.629 1.321.686.044 1.289-.277 1.922-.435a.775.775 0 0 1 .707.169c.33.31.362.713.196 1.113-.347.735-.817 1.13-1.315 1.821-.686.954-1.312 2.236-1.334 3.197.004.226.099.382.254.447.368.13.687-.144.993-.329 2.124-1.601 3.75-3.887 5.513-5.787.462-.43.99-.872 1.64-.667.228.08.406.26.466.504.099.46-.172 1.037-.462 1.423-.88 1.338-2.06 2.86-2.105 4.442.007.276.093.37.22.41.512.147 1.126-.374 1.586-.799 1.546-1.415 2.579-3.215 3.746-4.874.228-.358.577-.653 1.001-.7.296-.017.541.062.733.26.51.717.083 1.786-.275 2.473-1.572 2.955-3.232 5.944-4.888 8.96-.834 1.452-1.293 2.269-1.343 3.399-.048.13-.167.194-.344.13-.939-.347-1.312-.925-1.32-1.62-.006-.615.543-1.487.75-1.894.812-1.595 1.913-3.28 2.68-4.875-.109.088-.307.288-.48.43-1.023.83-1.992 1.896-3.364 1.709-.448-.08-.845-.533-.968-.986-.22-.767-.08-1.865.152-2.65l-.084.083c-1.17 1.241-2.431 2.624-4.01 3.398-.484.22-1.322.378-1.81-.061-.924-.95-.7-2.639-.195-3.877.405-1.016.964-1.966 1.572-2.862-.448.137-.85.201-1.3.205l-.152.22c-1.434 2.139-2.79 4.547-4.907 6.026-.723.507-1.68.548-2.28.166-.506-.325-.712-.915-.857-1.46-1.062.804-2.908 2.212-4.19 1.586-.77-.41-1.102-1.278-1.066-2.157.03-1.268.59-2.577 1.099-3.714-.196.092-.3.132-.503.223-.49.22-.993.374-1.493.561-.367 1.032-1.145 2.483-1.574 3.063-.633.969-1.893 2.19-3.034 2.225-.904.062-1.698-.356-2.129-1.105-1.023-1.652-.546-3.91-.138-5.854.735-2.916 1.904-5.627 3.285-8.175-.445.057-.795.082-1.24.108-.794.05-1.402.125-2.261-.044.062 4.66-1.167 9.462-4.235 13.138-.87 1.04-2.268 2.134-3.796 1.896-.969-.144-1.68-1.126-1.817-2.015-.684 1.17-1.989 2.576-3.874 1.544-1.117-.615-1.134-1.167-1.213-2.39 0 0-2.36 3.564-5.46 2.727-1.398-.389-2.597-1.774-1.856-3.981-3.852 2.96-8.184 4.885-12.032 4.951-5.314.094-10-2.067-12.276-5.677C-1.587 19.879.393 12.924 4.396 8.52c4-4.406 8.54-6.235 11.489-7.195 8.18-2.665 15.2-.936 18.108 1.89"/></svg>