<svg xmlns="http://www.w3.org/2000/svg" width="98" height="26"><path fill="#CBD5E1" fill-rule="nonzero" d="M0 4.333h3.417v7.116h7.207V4.333h3.422V21.8h-3.422v-7.265H3.417V21.8H0V4.333ZM24.871 16.11V8.59h3.24v7.52c0 3.137-2.724 5.689-6.07 5.689-3.348 0-6.072-2.552-6.072-5.689V8.59h3.241v7.52c0 1.462 1.27 2.652 2.83 2.652s2.831-1.19 2.831-2.652ZM37.158 8.68c3.63 0 6.75 2.842 6.75 6.56 0 3.765-3.384 6.56-7.247 6.56-3.475 0-6.568-2.746-6.568-6.755V4.334h3.251v5.779c1.084-.997 2.206-1.434 3.814-1.434Zm.08 10.301c1.867 0 3.553-1.724 3.553-3.741 0-2.017-1.686-3.742-3.553-3.742-2.203 0-3.887 1.725-3.887 3.742s1.684 3.741 3.887 3.741ZM49.37 9.446c0 2.843 7.752.802 7.752 7.361 0 3.038-2.697 4.982-6.04 4.982-2.23 0-4.097-.875-5.601-2.6l2.36-2.284c.88.923 1.503 1.798 3.422 1.798 1.218 0 2.28-.9 2.28-1.92 0-3.304-7.751-1.433-7.751-7.337 0-3.183 2.54-5.102 6.067-5.102 1.762 0 3.914.923 4.976 2.26l-2.125 2.332c-.83-.827-2.1-1.507-3.059-1.507-1.192 0-2.281.486-2.281 2.017Zm16.31-.938c3.863 0 7.248 2.793 7.248 6.56 0 3.717-3.121 6.56-6.75 6.56-1.609 0-2.73-.439-3.814-1.435V26h-3.251V15.262c0-4.01 3.093-6.754 6.568-6.754Zm.578 10.301c1.867 0 3.552-1.726 3.552-3.742 0-2.017-1.685-3.742-3.552-3.742-2.203 0-3.887 1.725-3.887 3.742 0 2.016 1.684 3.742 3.887 3.742Zm30.601.171A18.5 18.5 0 0 0 98 18.932l-.804 2.77c-.311.072-.882.097-1.297.097-2.773 0-4.794-1.385-4.794-4.131V6.928l3.291-1.384v3.524h2.981v2.672h-2.98v5.272c0 1.19.544 1.968 2.461 1.968Zm-9.296-7.041c.608.95.898 1.988.898 3.113v.057c0 1.144-.36 2.183-1.014 3.124-.65.938-1.512 1.673-2.612 2.21a7.507 7.507 0 0 1-3.332.757h-.195a8.002 8.002 0 0 1-2.92-.551 7.499 7.499 0 0 1-1.248-.614l-2.808 2.524c.066.19.101.39.101.594.002.526-.23 1.03-.644 1.4a2.32 2.32 0 0 1-1.558.58 2.318 2.318 0 0 1-1.558-.58 1.872 1.872 0 0 1-.646-1.4 1.87 1.87 0 0 1 .645-1.4c.605-.547 1.51-.725 2.314-.456l2.717-2.448a5.704 5.704 0 0 1-1.06-1.656 5.853 5.853 0 0 1-.448-2.216v-.233c0-1.115.4-2.138 1.053-3.067a6.4 6.4 0 0 1 1.158-1.219l-8.186-5.301-.596-.407a3.063 3.063 0 0 1-1.463.374c-1.575 0-2.85-1.147-2.85-2.562C63.31 1.147 64.584 0 66.159 0c1.575 0 2.85 1.147 2.85 2.562 0 .236-.052.46-.12.676 2.824 1.925 7.65 5.221 9.121 6.226.721-.328 1.51-.541 2.27-.64V5.78c-.95-.362-1.506-1.166-1.506-2.103 0-1.278 1.16-2.313 2.58-2.313 1.42 0 2.56 1.035 2.56 2.313 0 .937-.59 1.74-1.54 2.103v3.044a7.457 7.457 0 0 1 2.608.812c1.09.578 1.96 1.346 2.58 2.304Zm-3.431 5.295c.664-.656.995-1.379.995-2.159 0-.117-.005-.24-.016-.359a3.375 3.375 0 0 0-.621-1.592 3.626 3.626 0 0 0-1.386-1.133 4.158 4.158 0 0 0-1.764-.365h-.064c-.685 0-1.3.167-1.876.508a3.667 3.667 0 0 0-1.355 1.332c-.305.508-.426 1.047-.426 1.615v.175c0 .578.213 1.122.605 1.621.38.508.844.91 1.455 1.191a3.87 3.87 0 0 0 1.66.396h.164c.99 0 1.867-.469 2.629-1.23Z"/></svg>